<?xml version="1.0" standalone="no"?>
<!DOCTYPE svg PUBLIC "-//W3C//DTD SVG 20010904//EN"
 "http://www.w3.org/TR/2001/REC-SVG-20010904/DTD/svg10.dtd">
<svg version="1.0" xmlns="http://www.w3.org/2000/svg"
 width="100.000000pt" height="255.000000pt" viewBox="0 0 1102.000000 255.000000"
 preserveAspectRatio="xMidYMid meet">

<g transform="translate(0.000000,255.000000) scale(0.100000,-0.100000)"
fill="#003bb3" stroke="none">
<path d="M1015 2523 c-16 -9 -47 -31 -68 -50 -50 -44 -75 -53 -154 -53 -125 0
-171 -26 -236 -134 -43 -71 -65 -87 -175 -132 -64 -26 -108 -80 -122 -150 -23
-109 -31 -127 -95 -189 -35 -33 -70 -73 -78 -90 -9 -18 -16 -73 -19 -140 -4
-88 -12 -130 -38 -209 -38 -119 -36 -155 12 -230 l33 -51 -3 -118 c-3 -146 10
-182 91 -251 59 -52 78 -88 96 -181 7 -38 21 -72 39 -95 26 -32 47 -45 171
-104 31 -14 53 -34 70 -65 14 -24 43 -63 65 -87 46 -52 107 -74 201 -72 65 1
106 -14 140 -52 24 -27 78 -55 122 -65 19 -4 75 1 132 11 95 16 104 16 190 0
129 -25 174 -14 282 74 31 25 92 41 130 33 43 -8 122 15 161 48 20 16 50 53
67 83 33 60 80 100 126 112 107 25 163 90 180 209 10 69 24 93 93 152 81 71
97 107 87 197 -13 113 -9 144 26 219 43 93 44 158 6 242 -43 92 -49 130 -31
203 19 77 14 92 -61 182 -103 123 -113 138 -120 193 -14 110 -63 170 -167 206
-79 27 -101 44 -133 104 -57 107 -107 138 -233 143 -83 4 -126 18 -153 50 -8
10 -34 30 -58 46 -55 35 -121 37 -206 8 -32 -11 -75 -20 -96 -20 -21 0 -61 9
-89 20 -61 24 -143 25 -185 3z m229 -359 c3 -9 6 -28 6 -44 0 -22 -6 -29 -27
-34 -32 -9 -43 5 -43 57 0 34 2 37 29 37 17 0 31 -6 35 -16z m126 -18 c0 -53
-7 -63 -40 -58 -28 4 -30 7 -30 48 0 44 0 44 35 44 33 0 35 -2 35 -34z m-243
-35 c3 -22 2 -41 -3 -41 -5 0 -19 -3 -30 -6 -19 -5 -23 -1 -29 35 -9 55 -9 55
17 62 31 8 39 -1 45 -50z m354 51 c12 -6 13 -15 6 -49 -7 -36 -12 -43 -32 -43
-32 0 -38 13 -30 60 7 40 19 48 56 32z m113 -32 c25 -9 25 -9 10 -55 -9 -25
-18 -45 -21 -45 -4 0 -45 20 -51 25 -6 5 21 85 29 85 4 0 19 -4 33 -10z m-585
-41 c10 -34 10 -43 -1 -50 -27 -18 -46 -9 -61 29 -14 34 -14 38 1 50 30 23 48
14 61 -29z m705 -12 c18 -13 17 -15 -3 -55 -20 -39 -23 -41 -46 -30 -29 13
-30 17 -11 63 16 37 31 43 60 22z m-814 -37 l20 -39 -28 -15 c-29 -15 -29 -14
-51 25 -22 39 -22 41 -5 54 30 23 42 18 64 -25z m918 -26 c24 -16 22 -25 -16
-72 -18 -23 -18 -23 -42 -4 l-23 19 22 37 c26 41 28 42 59 20z m-1024 -34 l26
-40 -26 -16 c-25 -17 -26 -17 -49 12 -30 36 -31 49 -3 68 12 9 23 16 24 16 1
0 13 -18 28 -40z m1119 -44 c24 -18 22 -28 -13 -61 l-30 -29 -22 22 -22 22 29
30 c33 34 34 34 58 16z m-1201 -88 l-22 -22 -35 34 -35 34 22 23 22 24 35 -36
36 -35 -23 -22z m1295 -14 c12 -20 11 -23 -23 -49 l-36 -28 -21 22 -21 21 29
30 c33 34 51 35 72 4z m-1386 -22 c30 -27 31 -28 12 -50 l-18 -23 -38 26 c-36
25 -38 32 -14 63 14 18 23 15 58 -16z m1455 -77 c9 -14 15 -27 13 -29 -2 -1
-21 -12 -41 -24 l-38 -21 -15 22 c-21 29 -20 32 18 56 41 26 43 26 63 -4z
m-1530 -16 c37 -23 40 -30 22 -58 -11 -19 -13 -19 -54 2 -42 20 -43 21 -28 49
17 34 18 34 60 7z m1584 -88 c16 -31 12 -40 -26 -56 -48 -20 -49 -19 -63 11
-14 31 -16 28 29 47 46 20 48 20 60 -2z m-1627 -23 c23 -8 27 -15 23 -32 -3
-11 -6 -24 -6 -28 0 -12 -27 -9 -65 6 -33 14 -34 16 -24 46 9 23 16 29 28 25
9 -4 29 -12 44 -17z m999 -61 l28 -22 -201 -280 c-110 -154 -206 -286 -212
-292 -10 -10 -32 7 -107 82 l-94 95 29 30 29 30 62 -61 62 -61 43 59 c24 33
105 146 179 251 74 105 140 191 145 192 6 0 22 -10 37 -23z m668 -24 c0 -5 3
-18 6 -30 5 -19 0 -23 -36 -33 -45 -12 -56 -8 -62 25 -3 15 4 23 27 32 35 14
65 16 65 6z m-1707 -29 c23 -5 28 -11 25 -33 -3 -24 -6 -26 -47 -24 -24 1 -46
4 -48 7 -3 2 -2 19 2 36 5 22 11 29 23 26 10 -3 30 -8 45 -12z m1731 -100 c16
-41 7 -54 -34 -54 -22 0 -43 -1 -47 -2 -5 -2 -9 11 -11 29 -3 29 -1 32 30 36
18 2 38 5 44 5 7 1 15 -5 18 -14z m-1740 -20 c10 -4 16 -18 16 -36 0 -30 0
-31 -45 -25 -55 6 -59 9 -51 42 5 19 13 25 35 25 16 0 36 -3 45 -6z m1746
-129 c0 -35 0 -35 -45 -35 -45 0 -45 0 -45 35 0 35 0 35 45 35 45 0 45 0 45
-35z m-1730 -14 c0 -32 -14 -41 -66 -41 -32 0 -34 2 -34 35 l0 35 50 0 c48 0
50 -1 50 -29z m1698 -77 c16 -5 22 -14 22 -35 0 -35 -5 -38 -58 -27 -33 7 -42
13 -38 25 3 8 6 21 6 29 0 15 29 18 68 8z m-1688 -43 c0 -27 -4 -31 -42 -38
-39 -8 -44 -7 -50 12 -14 44 -7 50 65 54 24 1 27 -3 27 -28z m1663 -78 c30 -6
31 -10 17 -47 -9 -25 -9 -25 -54 -10 -30 10 -43 20 -40 30 2 8 6 21 9 30 3 11
11 14 23 9 9 -3 29 -9 45 -12z m-1633 -29 c6 -14 10 -27 10 -29 0 -2 -20 -10
-45 -19 -46 -15 -46 -15 -55 10 -14 37 -13 40 23 52 49 15 57 14 67 -14z
m1581 -84 l39 -21 -15 -30 -16 -30 -39 22 c-43 24 -46 30 -30 60 13 23 12 23
61 -1z m-1533 -25 c11 -23 9 -26 -30 -46 -40 -20 -42 -21 -55 -3 -20 28 -16
43 20 58 45 20 52 19 65 -9z m1506 -104 c3 -4 -4 -17 -14 -30 l-17 -24 -37 22
c-41 26 -42 28 -21 58 l15 22 35 -20 c19 -12 37 -24 39 -28z m-1447 3 c12 -19
10 -23 -24 -48 l-38 -26 -17 21 c-24 29 -23 34 15 58 37 24 45 23 64 -5z
m1346 -79 c32 -29 33 -36 7 -60 -20 -18 -21 -18 -50 10 -33 31 -36 45 -18 63
17 17 29 15 61 -13z m-1278 -5 c18 -20 18 -21 -15 -55 l-34 -35 -23 22 -23 22
32 33 c38 39 39 39 63 13z m1193 -83 l32 -33 -25 -24 c-15 -14 -28 -20 -33
-14 -4 5 -18 21 -31 36 -24 27 -24 28 -6 48 24 26 25 26 63 -13z m-1088 -16
c-1 -3 -14 -21 -30 -40 -29 -35 -29 -35 -52 -15 -13 10 -25 20 -27 22 -3 1 10
18 29 37 31 32 34 33 56 18 13 -8 24 -18 24 -22z m993 -60 l26 -39 -25 -17
c-29 -19 -36 -16 -62 29 l-20 35 21 15 c31 21 31 21 60 -23z m-903 -5 c0 -13
-37 -76 -45 -76 -3 0 -17 7 -30 16 l-24 16 25 38 c23 35 28 38 50 28 13 -6 24
-16 24 -22z m800 -56 l20 -39 -30 -16 -31 -16 -19 43 -19 43 22 12 c32 18 35
17 57 -27z m-709 20 c18 -10 18 -13 4 -47 -20 -47 -19 -47 -50 -39 -29 7 -31
25 -10 66 17 32 26 36 56 20z m598 -69 c12 -37 8 -45 -26 -56 -18 -5 -25 -1
-32 18 -20 51 -17 71 9 77 30 8 34 5 49 -39z m-472 25 c1 -1 -3 -21 -9 -44
-10 -42 -24 -50 -61 -36 -12 4 -13 12 -5 37 5 18 12 38 14 46 3 9 13 11 32 6
15 -4 28 -8 29 -9z m113 -51 c0 -52 -7 -62 -40 -57 -32 5 -35 14 -24 69 5 26
9 29 35 25 25 -4 29 -8 29 -37z m234 23 c15 -66 13 -73 -21 -76 -24 -2 -33 1
-33 11 0 8 -3 28 -6 45 -5 24 -2 31 12 35 36 9 44 7 48 -15z m-116 -40 l3 -48
-35 0 c-33 0 -36 3 -36 28 0 55 11 73 39 70 23 -3 26 -8 29 -50z"/>
<path d="M1202 2136 c2 -15 8 -26 13 -26 15 0 12 43 -3 48 -10 3 -13 -4 -10
-22z"/>
<path d="M1320 2135 c0 -16 6 -25 15 -25 9 0 15 9 15 25 0 16 -6 25 -15 25 -9
0 -15 -9 -15 -25z"/>
<path d="M1080 2128 c0 -19 18 -43 25 -36 9 9 -4 48 -16 48 -5 0 -9 -6 -9 -12z"/>
<path d="M1446 2135 c-9 -24 -7 -45 3 -45 5 0 13 9 16 21 8 26 -9 48 -19 24z"/>
<path d="M1567 2103 c-11 -10 -8 -43 3 -43 6 0 10 4 10 9 0 5 3 16 6 25 6 16
-7 22 -19 9z"/>
<path d="M966 2101 c-9 -14 12 -53 25 -46 5 4 5 15 -2 28 -16 30 -16 30 -23
18z"/>
<path d="M1672 2046 c-14 -31 3 -45 18 -15 7 13 8 25 3 30 -6 6 -14 0 -21 -15z"/>
<path d="M850 2044 c0 -15 22 -44 31 -39 11 7 -7 45 -21 45 -6 0 -10 -3 -10
-6z"/>
<path d="M1782 1988 c-13 -13 -16 -38 -6 -38 8 0 33 32 34 43 0 11 -15 8 -28
-5z"/>
<path d="M746 1982 c-7 -11 31 -48 41 -38 4 3 -2 16 -14 27 -11 12 -23 17 -27
11z"/>
<path d="M1870 1905 c-7 -9 -10 -18 -7 -22 8 -7 37 15 37 28 0 14 -16 11 -30
-6z"/>
<path d="M656 1902 c-3 -5 3 -17 13 -26 11 -10 22 -13 25 -8 3 5 -3 17 -13 26
-11 10 -22 13 -25 8z"/>
<path d="M1957 1822 c-30 -32 -18 -43 17 -17 14 10 17 18 10 25 -7 7 -16 5
-27 -8z"/>
<path d="M570 1802 c0 -10 41 -35 47 -28 9 8 -17 36 -33 36 -8 0 -14 -3 -14
-8z"/>
<path d="M2020 1715 c-7 -9 -10 -18 -7 -21 6 -7 47 18 47 28 0 14 -27 9 -40
-7z"/>
<path d="M506 1701 c-6 -9 39 -32 48 -24 3 3 -2 12 -12 19 -20 16 -29 17 -36
5z"/>
<path d="M2078 1613 c-19 -5 -25 -23 -9 -23 17 0 41 12 41 21 0 9 -4 10 -32 2z"/>
<path d="M452 1590 c6 -20 48 -33 48 -15 0 8 -4 15 -9 15 -5 0 -17 3 -27 7
-11 4 -15 2 -12 -7z"/>
<path d="M2123 1500 c-31 -13 -29 -28 2 -22 14 2 25 11 25 18 0 8 -1 14 -2 13
-2 0 -13 -4 -25 -9z"/>
<path d="M416 1471 c-7 -10 43 -25 52 -16 7 7 -18 25 -35 25 -6 0 -14 -4 -17
-9z"/>
<path d="M2120 1370 c0 -5 14 -10 30 -10 17 0 30 5 30 10 0 6 -13 10 -30 10
-16 0 -30 -4 -30 -10z"/>
<path d="M395 1350 c-3 -5 6 -12 20 -16 29 -7 41 -1 30 15 -8 14 -42 14 -50 1z"/>
<path d="M2130 1245 c0 -9 9 -15 25 -15 16 0 25 6 25 15 0 9 -9 15 -25 15 -16
0 -25 -6 -25 -15z"/>
<path d="M390 1225 c0 -12 7 -15 25 -13 33 4 33 22 0 26 -18 2 -25 -1 -25 -13z"/>
<path d="M2122 1128 c5 -15 48 -24 48 -10 0 10 -23 22 -42 22 -5 0 -8 -6 -6
-12z"/>
<path d="M420 1110 c-8 -5 -12 -12 -8 -15 9 -9 48 4 48 16 0 12 -21 11 -40 -1z"/>
<path d="M2090 1011 c0 -11 39 -25 47 -18 3 3 2 10 -2 16 -8 13 -45 15 -45 2z"/>
<path d="M445 989 c-4 -6 -5 -12 -3 -14 7 -7 48 7 48 16 0 13 -37 11 -45 -2z"/>
<path d="M2050 901 c0 -16 38 -33 45 -20 8 13 6 15 -22 23 -14 5 -23 3 -23 -3z"/>
<path d="M491 881 c-21 -13 5 -24 29 -11 11 6 20 13 20 15 0 8 -34 5 -49 -4z"/>
<path d="M1992 798 c6 -17 36 -34 44 -25 4 4 -1 14 -12 22 -23 18 -37 19 -32
3z"/>
<path d="M560 775 c-7 -9 -10 -18 -7 -21 6 -7 47 18 47 28 0 14 -27 9 -40 -7z"/>
<path d="M1928 688 c12 -12 24 -19 28 -15 10 10 -16 37 -34 37 -13 0 -12 -4 6
-22z"/>
<path d="M637 682 c-10 -10 -14 -22 -10 -25 7 -8 43 21 43 35 0 14 -16 9 -33
-10z"/>
<path d="M1830 622 c0 -14 36 -43 43 -35 4 3 0 15 -10 25 -17 19 -33 24 -33
10z"/>
<path d="M726 601 c-12 -13 -14 -21 -6 -26 6 -4 12 -5 13 -4 2 2 8 11 15 21
18 23 -2 31 -22 9z"/>
<path d="M1740 548 c0 -21 17 -41 29 -34 7 5 7 13 -2 26 -13 23 -27 26 -27 8z"/>
<path d="M832 538 c-14 -14 -16 -38 -3 -38 10 0 26 39 19 46 -2 2 -10 -2 -16
-8z"/>
<path d="M1630 492 c0 -15 28 -47 35 -40 8 8 -13 48 -25 48 -6 0 -10 -4 -10
-8z"/>
<path d="M932 475 c-8 -16 -8 -26 -1 -31 12 -7 15 -5 23 23 10 30 -9 37 -22 8z"/>
<path d="M1520 448 c0 -19 18 -43 25 -36 9 9 -4 48 -16 48 -5 0 -9 -6 -9 -12z"/>
<path d="M1045 429 c-8 -23 -1 -34 14 -24 13 8 15 45 2 45 -5 0 -13 -9 -16
-21z"/>
<path d="M1166 414 c-10 -25 -7 -34 9 -34 9 0 15 9 15 25 0 28 -15 34 -24 9z"/>
<path d="M1408 405 c2 -14 8 -25 13 -25 5 0 9 11 9 25 0 14 -6 25 -14 25 -9 0
-12 -8 -8 -25z"/>
<path d="M1290 416 c0 -8 -3 -21 -6 -30 -4 -11 -1 -16 10 -16 11 0 16 9 16 30
0 17 -4 30 -10 30 -5 0 -10 -6 -10 -14z"/>
<path d="M2750 2115 l0 -135 260 0 260 0 0 -835 0 -835 150 0 150 0 0 835 0
835 250 0 250 0 4 23 c3 12 7 73 8 135 l3 112 -667 0 -668 0 0 -135z"/>
<path d="M5560 1270 l0 -970 145 0 145 0 0 695 c0 382 3 695 8 695 4 -1 212
-312 463 -693 l456 -692 142 -3 141 -3 0 971 0 970 -155 0 -155 0 -2 -689 -3
-690 -455 689 -455 689 -137 1 -138 0 0 -970z"/>
<path d="M8820 2025 l0 -174 -97 -3 -98 -3 -3 -132 -3 -133 100 0 100 0 3
-487 c4 -540 5 -542 71 -638 40 -59 95 -99 172 -126 48 -17 90 -23 210 -26 83
-2 170 0 195 4 l45 9 3 125 3 126 -157 6 c-92 4 -167 12 -182 19 -56 27 -57
33 -60 531 l-4 457 201 0 201 0 0 135 0 135 -200 0 -200 0 0 175 0 175 -150 0
-150 0 0 -175z"/>
<path d="M4555 1856 c-297 -58 -503 -249 -587 -541 -20 -69 -23 -102 -22 -245
0 -151 2 -173 28 -255 44 -143 88 -218 185 -315 95 -95 188 -150 321 -192 65
-20 96 -23 225 -23 126 0 163 4 230 23 214 62 366 183 465 373 68 131 85 209
85 394 -1 136 -4 172 -23 240 -32 112 -73 193 -141 278 -97 122 -236 212 -391
251 -90 23 -287 29 -375 12z m282 -280 c87 -23 145 -57 209 -120 99 -99 137
-207 136 -386 0 -170 -40 -279 -138 -378 -131 -131 -299 -170 -486 -112 -80
25 -138 61 -191 120 -169 187 -169 553 -1 749 43 50 120 99 192 122 70 22 205
25 279 5z"/>
<path d="M7805 1861 c-167 -27 -297 -93 -416 -211 -136 -135 -198 -269 -220
-478 -19 -183 8 -341 86 -497 122 -246 374 -395 670 -395 231 0 423 75 565
219 110 113 174 232 207 384 22 108 13 358 -17 452 -81 256 -272 442 -517 506
-87 23 -276 33 -358 20z m260 -286 c208 -55 327 -213 342 -454 13 -218 -54
-380 -199 -481 -90 -63 -155 -84 -268 -83 -297 2 -473 194 -473 518 -1 115 19
200 65 287 53 99 171 193 275 217 61 14 194 12 258 -4z"/>
<path d="M10119 1855 c-163 -31 -282 -90 -385 -193 -236 -234 -293 -657 -132
-992 34 -70 56 -101 132 -176 74 -73 107 -98 176 -132 117 -56 185 -73 331
-79 189 -8 330 26 466 113 80 51 174 152 215 230 33 62 78 197 78 231 0 10
-35 13 -149 13 l-148 0 -18 -47 c-62 -165 -190 -259 -370 -270 -146 -10 -273
36 -370 133 -58 57 -111 154 -121 222 l-7 42 598 0 597 0 -5 173 c-5 192 -17
250 -72 362 -86 175 -251 307 -450 361 -84 22 -271 27 -366 9z m231 -266 c138
-22 256 -102 310 -213 29 -59 53 -150 42 -161 -7 -7 -867 -7 -874 1 -3 3 0 27
7 55 43 162 164 278 329 314 76 17 105 17 186 4z"/>
</g>
</svg>
